# xmcd CD database file
#
# Track frame offsets:
#	150
#	16425
#	35015
#	52182
#	68135
#	89350
#	104975
#	121937
#	138852
#	156257
#
# Disc length: 2305 seconds
#
# Revision: 2
# Processed by: cddbd v1.5.2PL0 Copyright (c) Steve Scherf et al.
# Submitted via: CDex 1.51
#
DISCID=8f08ff0a
DTITLE=Brent Howard - Brent Howard
DYEAR=1996
DGENRE=Country
TTITLE0=The Good Ol' Days
TTITLE1=What Is And Isn't Mine
TTITLE2=Always Leaving Something Behind
TTITLE3=Present Day Lamborghini
TTITLE4=The Wrangler
TTITLE5=THe Other Side O' Dixie
TTITLE6=Wake Me When It's Over
TTITLE7=Old Time Country Song
TTITLE8=Walkin' On The Blue Side
TTITLE9=One Night
EXTD=YEAR: 1996
EXTT0=
EXTT1=
EXTT2=
EXTT3=
EXTT4=
EXTT5=
EXTT6=
EXTT7=
EXTT8=
EXTT9=
PLAYORDER=
